<svg xmlns="http://www.w3.org/2000/svg" viewBox="0 0 64 64" id="essential-oil"><path d="M44 32c0-2.21-1.79-4-4-4h-2v-4c1.1046 0 2-.8954 2-2v-4c0-1.1046-.8954-2-2-2h-3V7c0-1.6569-1.3431-3-3-3s-3 1.3431-3 3v9h-3c-1.1046 0-2 .8954-2 2v4c0 1.1046.8954 2 2 2v4h-2c-2.21 0-4 1.79-4 4v3h24v-3zM30.12 53h-10.12v3c0 2.21 1.79 4 4 4h9.83c-.34-.25-.68-.53-.99-.84-1.85-1.85-2.5-4.39-2.72-6.16zM30.01 50.89l.1-1.78 1.79-.11s.14-.01.39-.01c.73 0 2.23.07 3.86.56 1.15-2.97 3.4-5.02 3.52-5.12l1.33-1.2 1.33 1.2c.07.06.82.75 1.67 1.87v-9.3H20v14h10.01v-.11zm-1.01-5.69c0-2.59 3-5.4 3-5.4 0 0 3 2.81 3 5.4 0 1.66-1.34 3-3 3s-3-1.34-3-3z"></path><path d="M41,45.92s-2.01,1.8-2.99,4.36c.76,.39,1.5,.89,2.16,1.55,.31,.3101,.59,.64,.83,.9901,.24-.35,.52-.68,.83-.9901,.66-.66,1.4-1.16,2.16-1.55-.98-2.56-2.99-4.36-2.99-4.36Z"></path><path d="M49.994,51s-4.2619-.2352-6.7455,2.2485c-1.9064,1.9064-2.21,4.8535-2.2485,6.1237-.0386-1.2703-.3422-4.2173-2.2485-6.1237-2.4836-2.4836-6.7455-2.2485-6.7455-2.2485,0,0-.2352,4.2619,2.2485,6.7455,2.4836,2.4836,6.7455,2.2485,6.7455,2.2485,0,0,4.2619,.2351,6.7455-2.2485,2.4836-2.4836,2.2485-6.7455,2.2485-6.7455Z"></path><!-- <text x="0" y="115" fill="#000000" font-size="5px" font-weight="bold" font-family="'Helvetica Neue', Helvetica, Arial-Unicode, Arial, Sans-serif">Created by Natalia Woodroffe</text>
<text x="0" y="120" fill="#000000" font-size="5px" font-weight="bold" font-family="'Helvetica Neue', Helvetica, Arial-Unicode, Arial, Sans-serif">from the Noun Project</text> --></svg>