<?xml version="1.0" standalone="no"?>
<!DOCTYPE svg PUBLIC "-//W3C//DTD SVG 20010904//EN"
 "http://www.w3.org/TR/2001/REC-SVG-20010904/DTD/svg10.dtd">
<svg version="1.0" xmlns="http://www.w3.org/2000/svg"
 width="512.000000pt" height="512.000000pt" viewBox="0 0 512.000000 512.000000"
 preserveAspectRatio="xMidYMid meet">

<g transform="translate(0.000000,512.000000) scale(0.100000,-0.100000)"
fill="#000000" stroke="none">
<path d="M993 5070 c-268 -48 -463 -277 -463 -545 0 -63 16 -153 34 -197 7
-15 -10 -17 -186 -20 -212 -3 -228 -7 -296 -72 -69 -64 -77 -91 -80 -288 -3
-159 -2 -181 16 -221 11 -25 32 -53 46 -62 l26 -17 0 -556 c0 -543 0 -557 21
-599 37 -77 133 -143 208 -143 l21 0 0 -1070 0 -1070 -145 0 c-142 0 -147 -1
-170 -25 -32 -31 -32 -75 -1 -112 l24 -28 609 0 608 0 49 25 c40 20 88 70 259
270 115 135 222 257 238 273 l29 27 773 0 773 0 275 -196 c150 -108 290 -204
309 -213 31 -14 99 -16 568 -16 l534 0 24 28 c29 34 31 76 5 108 l-19 24 -524
5 -523 5 -260 186 c-143 103 -278 197 -300 210 -36 22 -54 24 -186 27 l-146 4
8 36 c5 21 9 126 9 236 l0 199 231 403 231 404 390 -2 391 -3 283 -495 c155
-272 292 -501 304 -509 52 -35 130 5 130 67 0 42 -966 1727 -1008 1760 -49 37
-132 41 -187 10 -37 -21 -70 -75 -400 -653 l-360 -629 -3 703 -2 702 25 33
c112 147 43 380 -132 446 -50 19 -78 20 -400 20 l-347 0 -261 259 c-287 286
-317 308 -461 334 -37 7 -69 18 -72 25 -2 6 10 31 27 56 64 92 93 191 92 314
0 141 -49 266 -146 370 -31 33 -78 75 -105 92 -105 67 -267 101 -387 80z m159
-171 c120 -25 225 -108 276 -217 24 -50 27 -70 27 -157 0 -94 -2 -105 -34
-169 -29 -60 -36 -67 -55 -60 -11 4 -153 9 -314 11 l-294 4 -26 57 c-24 50
-27 70 -27 157 0 89 3 106 28 156 54 111 147 187 262 215 65 16 93 16 157 3z
m163 -769 c42 -16 55 -63 55 -205 l0 -125 -600 0 -600 0 0 141 0 141 29 29 29
29 531 0 c327 0 540 -4 556 -10z m320 -190 c43 -19 405 -366 405 -388 0 -7
-34 -56 -77 -108 l-76 -95 -72 71 c-55 55 -79 71 -101 72 -40 1 -73 -18 -84
-48 -6 -15 -10 -200 -10 -435 l0 -409 -85 0 -85 0 0 521 0 522 34 38 c44 48
56 92 56 202 l0 87 28 -6 c15 -4 45 -14 67 -24z m-355 -455 c0 -101 -4 -155
-14 -178 -16 -39 -61 -82 -99 -96 -18 -7 -161 -11 -400 -11 -416 0 -429 2
-478 71 -23 32 -24 44 -27 197 l-3 162 510 0 511 0 0 -145z m931 -87 c29 -22
41 -23 235 -26 l205 -3 -3 -127 -3 -127 -235 0 -235 0 -55 27 c-31 15 -68 41
-84 57 l-28 29 77 96 c42 53 81 96 86 96 6 0 23 -10 40 -22z m789 -41 c34 -17
70 -74 70 -109 0 -85 -56 -129 -172 -136 l-78 -5 0 132 0 131 78 0 c42 0 88
-6 102 -13z m-957 -367 c87 -41 161 -50 399 -50 l206 0 -1 -1037 c-1 -571 2
-1051 6 -1066 l8 -28 -93 3 -93 3 -6 90 c-6 95 -26 149 -77 210 -33 40 -107
92 -142 100 l-29 6 -3 447 c-4 428 -5 450 -26 512 -53 158 -167 288 -317 360
l-85 42 0 310 0 311 95 -92 c68 -66 113 -101 158 -121z m-1704 54 c24 -8 55
-14 68 -14 23 0 23 -2 23 -103 0 -95 2 -105 23 -124 33 -31 62 -36 97 -18 41
21 50 49 50 156 l0 89 170 0 170 0 0 -99 c0 -91 2 -102 24 -127 18 -21 32 -28
61 -28 29 0 43 7 61 28 22 25 24 36 24 127 0 97 0 99 23 99 22 0 89 18 130 35
16 7 17 -9 17 -244 l0 -252 -25 -24 -24 -25 -461 0 -461 0 -24 25 -25 24 0
252 c0 235 1 251 18 244 9 -4 37 -14 61 -21z m2651 -1126 c0 -806 -3 -1038
-13 -1058 -27 -54 -94 -63 -137 -20 -20 20 -20 38 -20 1060 l0 1039 63 4 c34
2 72 4 85 5 l22 2 0 -1032z m1170 592 l140 -245 -145 -3 c-80 -1 -210 -1 -289
0 l-145 3 142 248 c78 136 145 246 149 245 5 -2 71 -113 148 -248z m-2363
-119 c125 -59 217 -176 243 -311 6 -30 10 -224 10 -446 l0 -394 -220 0 c-121
0 -220 3 -220 8 -1 42 -81 633 -88 653 -32 81 -117 114 -276 107 -109 -5 -157
-25 -194 -80 -25 -39 -25 -41 -66 -661 l-41 -622 -217 -3 -218 -2 0 855 0 855
373 0 c345 0 375 2 412 20 22 10 51 28 65 40 24 19 35 20 195 18 170 -3 170
-3 242 -37z m-392 -863 c31 -243 40 -350 44 -538 4 -149 10 -242 18 -255 17
-31 55 -63 97 -83 l38 -19 -118 -137 c-111 -129 -119 -137 -128 -114 -47 119
-94 176 -179 218 l-62 30 39 600 40 600 86 0 86 0 39 -302z m780 -471 c81 -31
115 -84 115 -179 l0 -68 -340 0 -340 0 0 130 0 130 268 -1 c179 0 277 -4 297
-12z m-1089 -606 c65 -29 88 -71 93 -163 l3 -78 -341 0 -341 0 0 130 0 130
273 0 c244 0 276 -2 313 -19z"/>
<path d="M625 3515 c-25 -24 -32 -65 -19 -100 13 -33 59 -45 169 -45 104 0
107 1 136 29 17 18 29 40 29 56 0 16 -12 38 -29 56 -29 29 -31 29 -146 29
-110 0 -117 -1 -140 -25z"/>
<path d="M4145 5068 c-37 -20 -45 -40 -45 -115 0 -65 3 -77 25 -98 31 -32 75
-32 111 -2 23 20 28 34 32 84 5 70 -15 118 -54 133 -32 12 -44 12 -69 -2z"/>
<path d="M3544 4816 c-20 -9 -35 -25 -43 -47 -15 -43 9 -91 69 -137 35 -27 50
-33 74 -28 94 19 95 121 3 190 -44 33 -67 37 -103 22z"/>
<path d="M4755 4821 c-40 -18 -106 -97 -107 -127 -2 -65 55 -108 112 -84 46
19 110 94 110 129 0 56 -66 103 -115 82z"/>
<path d="M4056 4634 c-266 -64 -439 -352 -370 -618 45 -176 164 -302 337 -361
184 -62 380 -15 517 124 105 107 150 214 150 361 0 138 -49 258 -145 356 -127
129 -312 181 -489 138z m258 -183 c74 -32 128 -82 167 -153 32 -59 34 -69 34
-158 0 -79 -4 -103 -23 -142 -35 -70 -96 -134 -160 -165 -50 -25 -68 -28 -152
-28 -89 0 -99 2 -158 34 -70 38 -120 92 -154 167 -32 68 -32 198 -1 266 40 87
127 165 216 194 59 20 170 12 231 -15z"/>
<path d="M3270 4200 c-28 -28 -34 -63 -16 -98 20 -39 63 -56 133 -50 46 4 61
10 80 32 30 36 30 80 -2 111 -21 22 -33 25 -100 25 -61 0 -79 -4 -95 -20z"/>
<path d="M4900 4200 c-27 -27 -34 -64 -18 -96 19 -42 53 -55 127 -51 55 3 67
7 87 31 31 36 31 80 -1 111 -21 22 -33 25 -100 25 -61 0 -79 -4 -95 -20z"/>
<path d="M3545 3620 c-41 -41 -49 -56 -49 -86 0 -45 40 -84 85 -84 33 0 101
55 125 103 30 57 -9 117 -74 117 -32 0 -45 -7 -87 -50z"/>
<path d="M4672 3647 c-37 -39 -30 -88 21 -141 23 -24 55 -48 71 -52 36 -9 74
10 95 47 21 37 7 77 -45 126 -54 52 -106 59 -142 20z"/>
<path d="M4145 3438 c-37 -20 -45 -40 -45 -115 0 -65 3 -77 25 -98 31 -32 75
-32 111 -2 23 20 28 34 32 84 5 70 -15 118 -54 133 -32 12 -44 12 -69 -2z"/>
</g>
</svg>
