<?xml version="1.0" encoding="UTF-8" standalone="no"?> <svg width="64" height="64" viewBox="0 0 64 64" fill="none" xmlns="http://www.w3.org/2000/svg">
<path d="M2.713 41.958L13.24 45.116C15.0593 45.657 16.9379 45.9733 18.834 46.058C18.199 46.364 17.574 46.69 16.966 47.058C12.8094 49.5447 7.93393 50.5527 3.132 49.918C3.00039 49.8975 2.86602 49.9034 2.73675 49.9356C2.60749 49.9677 2.48595 50.0253 2.37926 50.1051C2.27258 50.1848 2.18289 50.2851 2.11548 50.3999C2.04807 50.5148 2.00428 50.642 1.9867 50.774C1.96911 50.906 1.97808 51.0403 2.01307 51.1688C2.04807 51.2973 2.10838 51.4175 2.19047 51.5224C2.27257 51.6273 2.37479 51.7147 2.49114 51.7796C2.60748 51.8444 2.73561 51.8853 2.868 51.9C8.12093 52.5974 13.4552 51.4937 18 48.769C20.8299 47.082 24.0096 46.0677 27.2937 45.8043C30.5777 45.541 33.8784 46.0356 36.941 47.25C37.1874 47.3486 37.4629 47.3454 37.7069 47.2409C37.9508 47.1365 38.1433 46.9394 38.242 46.693C38.3407 46.4466 38.3374 46.1711 38.2329 45.9271C38.1285 45.6831 37.9314 45.4906 37.685 45.392C35.2717 44.4317 32.7147 43.8825 30.12 43.767C30.757 43.46 31.385 43.135 31.995 42.767C35.318 40.7687 39.1224 39.713 43 39.713C46.8776 39.713 50.682 40.7687 54.005 42.767C56.1043 44.0276 58.3889 44.9499 60.775 45.5C61.0335 45.5597 61.305 45.5142 61.53 45.3737C61.7549 45.2331 61.9148 45.0089 61.9745 44.7505C62.0342 44.492 61.9887 44.2205 61.8482 43.9955C61.7076 43.7706 61.4834 43.6107 61.225 43.551C59.0429 43.0477 56.9537 42.204 55.034 41.051C53.6002 40.1911 52.0786 39.4871 50.495 38.951L51.929 35.366C51.9751 35.2494 51.9992 35.1253 52 35V27.971L57.207 40.387C57.2567 40.5096 57.3303 40.6212 57.4235 40.7152C57.5167 40.8092 57.6276 40.8837 57.7498 40.9345C57.872 40.9853 58.003 41.0114 58.1354 41.0112C58.2677 41.0109 58.3987 40.9845 58.5207 40.9332C58.6427 40.882 58.7534 40.8071 58.8462 40.7128C58.9391 40.6185 59.0123 40.5067 59.0616 40.3839C59.111 40.2611 59.1354 40.1297 59.1336 39.9974C59.1318 39.865 59.1037 39.7344 59.051 39.613L51.922 22.613C51.8457 22.4314 51.7176 22.2764 51.5535 22.1674C51.3895 22.0583 51.1969 22.0002 51 22.0002C50.803 22.0002 50.6105 22.0583 50.4465 22.1674C50.2824 22.2764 50.1543 22.4314 50.078 22.613L43.735 37.738C43.485 37.73 43.235 37.714 42.984 37.714L44 27.1C44.007 27.021 44.005 26.9415 43.994 26.863L43.094 20.579L45.112 25.392C45.1628 25.5131 45.2369 25.6231 45.3301 25.7156C45.4234 25.8081 45.5339 25.8813 45.6555 25.9311C45.777 25.9809 45.9072 26.0062 46.0386 26.0057C46.1699 26.0051 46.2999 25.9787 46.421 25.928C46.5421 25.8772 46.6521 25.8031 46.7446 25.7099C46.8371 25.6166 46.9103 25.506 46.9601 25.3845C47.0099 25.2629 47.0352 25.1328 47.0347 25.0014C47.0342 24.8701 47.0078 24.7401 46.957 24.619L41.924 12.619C41.8477 12.4374 41.7196 12.2824 41.5555 12.1734C41.3915 12.0643 41.1989 12.0062 41.002 12.0062C40.805 12.0062 40.6125 12.0643 40.4485 12.1734C40.2844 12.2824 40.1563 12.4374 40.08 12.619L37.5 18.77L32.962 2.72798C32.9068 2.53042 32.7922 2.3546 32.6337 2.22437C32.4752 2.09414 32.2805 2.01581 32.076 1.99998C31.8721 1.98659 31.6688 2.03508 31.4929 2.1391C31.317 2.24313 31.1765 2.39783 31.09 2.58298L26.09 13.583C26.0304 13.7139 25.9997 13.8561 26 14V14.906L22.865 9.49998C22.7662 9.33087 22.6201 9.19425 22.4448 9.10686C22.2695 9.01947 22.0725 8.98511 21.878 9.00798C21.6837 9.03202 21.5006 9.11259 21.3517 9.23969C21.2027 9.3668 21.0943 9.53485 21.04 9.72298L16.647 24.923L14.929 20.628C14.8549 20.4421 14.7268 20.2827 14.5612 20.1704C14.3956 20.0581 14.2001 19.9981 14 19.9981C13.7999 19.9981 13.6044 20.0581 13.4388 20.1704C13.2732 20.2827 13.145 20.4421 13.071 20.628L9.178 30.362C9.1292 30.4839 9.1049 30.6143 9.10649 30.7456C9.10807 30.8769 9.13551 31.0066 9.18723 31.1274C9.23896 31.2481 9.31395 31.3574 9.40794 31.4492C9.50192 31.5409 9.61306 31.6132 9.735 31.662C9.85693 31.7108 9.98728 31.7351 10.1186 31.7335C10.2499 31.7319 10.3796 31.7045 10.5004 31.6527C10.6211 31.601 10.7304 31.526 10.8222 31.432C10.9139 31.3381 10.9862 31.2269 11.035 31.105L14 23.692L15.743 28.05L12.452 39.438C12.4136 39.5647 12.4008 39.6977 12.4142 39.8294C12.4276 39.9611 12.467 40.0888 12.5302 40.2051C12.5934 40.3215 12.679 40.4241 12.7821 40.5071C12.8853 40.5901 13.0039 40.6517 13.131 40.6885C13.2582 40.7254 13.3914 40.7365 13.5229 40.7215C13.6544 40.7064 13.7816 40.6654 13.8971 40.6008C14.0127 40.5362 14.1142 40.4492 14.1959 40.3451C14.2776 40.2409 14.3378 40.1216 14.373 39.994L21.163 16.494L21.477 29.008L21.186 29.415C21.0642 29.5857 20.9991 29.7903 21 30V36.964L20.858 40.97C20.8533 41.1012 20.8745 41.2321 20.9205 41.3552C20.9664 41.4783 21.0361 41.5911 21.1256 41.6872C21.2151 41.7833 21.3227 41.8608 21.4422 41.9154C21.5617 41.9699 21.6907 42.0003 21.822 42.005H21.858C22.1171 42.0052 22.3661 41.9048 22.5527 41.7249C22.7392 41.5451 22.8487 41.2999 22.858 41.041L23 37V30.32L27.814 23.581C27.935 23.4114 28 23.2083 28 23V14.217L30.777 8.10698L30.153 22.457C30.1416 22.7219 30.2359 22.9806 30.4152 23.176C30.5945 23.3714 30.8441 23.4876 31.109 23.499H31.153C31.4109 23.4992 31.659 23.3998 31.8453 23.2215C32.0317 23.0431 32.1419 22.7997 32.153 22.542L32.731 9.25598L40.8 37.83C38.0946 38.0869 35.4549 38.8145 33 39.98V39.236L35.9 33.447C35.9734 33.2997 36.0094 33.1366 36.0047 32.9721C36 32.8076 35.9547 32.6468 35.873 32.504L31.873 25.504C31.7381 25.2804 31.5211 25.1184 31.2684 25.0527C31.0157 24.987 30.7473 25.0227 30.5206 25.1523C30.2939 25.2818 30.1268 25.4949 30.0552 25.746C29.9835 25.9971 30.0128 26.2663 30.137 26.496L33.871 33.031L31.11 38.553C31.0391 38.6914 31.0014 38.8445 31 39V41C31 41.011 31.006 41.021 31.006 41.032L30.966 41.054C28.4127 42.5828 25.5689 43.5632 22.6159 43.9327C19.6629 44.3022 16.6653 44.0526 13.814 43.2L7.014 41.16L9.549 34.821C9.59778 34.699 9.62206 34.5686 9.62045 34.4372C9.61883 34.3058 9.59136 34.176 9.53959 34.0553C9.48782 33.9345 9.41277 33.8251 9.31873 33.7334C9.22469 33.6416 9.1135 33.5693 8.9915 33.5205C8.8695 33.4717 8.73909 33.4474 8.60771 33.449C8.47632 33.4506 8.34655 33.4781 8.22579 33.5299C8.10502 33.5817 7.99564 33.6567 7.90388 33.7508C7.81212 33.8448 7.73978 33.956 7.691 34.078L5.091 40.578L3.291 40.037C3.16519 39.9993 3.03319 39.9868 2.90254 40.0001C2.77189 40.0134 2.64514 40.0523 2.52953 40.1146C2.41392 40.1769 2.31172 40.2614 2.22875 40.3632C2.14579 40.465 2.08369 40.5822 2.046 40.708C2.00831 40.8338 1.99577 40.9658 2.00909 41.0964C2.02241 41.2271 2.06134 41.3538 2.12365 41.4695C2.18596 41.5851 2.27043 41.6873 2.37223 41.7702C2.47404 41.8532 2.59119 41.9153 2.717 41.953L2.713 41.958ZM22.313 12.529L22.329 12.556L22.311 12.551L22.313 12.529ZM23.413 26.307L23.1 13.888L26 18.894V22.68L23.413 26.307ZM50 27.971V34.808L48.563 38.4C47.6654 38.1795 46.7554 38.0125 45.838 37.9L50 27.971ZM40.522 16.725L41.993 27.025L41.448 32.754L38.369 21.859L40.522 16.725Z" fill="black"/>
<path d="M39.662 47.4C39.5944 47.5126 39.5497 47.6374 39.5304 47.7673C39.511 47.8972 39.5175 48.0296 39.5493 48.157C39.5812 48.2844 39.6378 48.4043 39.716 48.5098C39.7942 48.6153 39.8924 48.7044 40.005 48.772C42.797 50.4437 45.9066 51.5155 49.1356 51.919C52.3647 52.3226 55.6425 52.0491 58.76 51.116L61.288 50.358C61.5421 50.2816 61.7554 50.1074 61.8811 49.8737C62.0067 49.64 62.0344 49.366 61.958 49.112C61.8816 48.8579 61.7074 48.6445 61.4738 48.5189C61.2401 48.3932 60.9661 48.3656 60.712 48.442L58.186 49.2C55.3347 50.0523 52.3371 50.3017 49.3841 49.9322C46.4312 49.5627 43.5874 48.5825 41.034 47.054C40.9212 46.9865 40.7962 46.942 40.6662 46.9229C40.5362 46.9038 40.4037 46.9105 40.2763 46.9426C40.1489 46.9747 40.029 47.0317 39.9236 47.1101C39.8182 47.1886 39.7293 47.2871 39.662 47.4Z" fill="black"/>
<path d="M61.288 55.742L53.458 53.393C49.8052 52.301 45.965 51.9816 42.182 52.455C38.399 52.9285 34.756 54.1844 31.485 56.143C28.453 57.9582 25.0762 59.1221 21.5697 59.5608C18.0632 59.9995 14.5037 59.7033 11.118 58.691L3.288 56.342C3.03392 56.2656 2.75991 56.2933 2.52624 56.4189C2.29257 56.5446 2.11838 56.7579 2.042 57.012C1.96561 57.266 1.99329 57.5401 2.11894 57.7737C2.24459 58.0074 2.45792 58.1816 2.712 58.258L10.542 60.607C14.1947 61.6993 18.035 62.0189 21.818 61.5455C25.6011 61.072 29.2441 59.8158 32.515 57.857C35.547 56.0418 38.9238 54.8778 42.4303 54.4391C45.9368 54.0004 49.4962 54.2967 52.882 55.309L60.712 57.658C60.9661 57.7343 61.2401 57.7067 61.4738 57.581C61.7074 57.4554 61.8816 57.242 61.958 56.988C62.0344 56.7339 62.0067 56.4599 61.8811 56.2262C61.7554 55.9925 61.5421 55.8183 61.288 55.742V55.742Z" fill="black"/>
<path d="M16 56C16.5523 56 17 55.5523 17 55C17 54.4477 16.5523 54 16 54C15.4477 54 15 54.4477 15 55C15 55.5523 15.4477 56 16 56Z" fill="black"/>
<path d="M24 53C24.5523 53 25 52.5523 25 52C25 51.4477 24.5523 51 24 51C23.4477 51 23 51.4477 23 52C23 52.5523 23.4477 53 24 53Z" fill="black"/>
<path d="M44 45C44.5523 45 45 44.5523 45 44C45 43.4477 44.5523 43 44 43C43.4477 43 43 43.4477 43 44C43 44.5523 43.4477 45 44 45Z" fill="black"/>
<path d="M50 47C50.5523 47 51 46.5523 51 46C51 45.4477 50.5523 45 50 45C49.4477 45 49 45.4477 49 46C49 46.5523 49.4477 47 50 47Z" fill="black"/>
<path d="M46 59C46.5523 59 47 58.5523 47 58C47 57.4477 46.5523 57 46 57C45.4477 57 45 57.4477 45 58C45 58.5523 45.4477 59 46 59Z" fill="black"/>
<path d="M6 48C6.55228 48 7 47.5523 7 47C7 46.4477 6.55228 46 6 46C5.44772 46 5 46.4477 5 47C5 47.5523 5.44772 48 6 48Z" fill="black"/>
<path d="M31 53C31.5523 53 32 52.5523 32 52C32 51.4477 31.5523 51 31 51C30.4477 51 30 51.4477 30 52C30 52.5523 30.4477 53 31 53Z" fill="black"/>
</svg>
